<svg data-v-fde0c5aa="" xmlns="http://www.w3.org/2000/svg" viewBox="0 0 300 300" class="font"><!----><defs data-v-fde0c5aa=""><!----></defs><rect data-v-fde0c5aa="" fill="#ECE9F4" x="0" y="0" width="300px" height="300px" class="logo-background-square"></rect><defs data-v-fde0c5aa=""><linearGradient data-v-fde0c5aa="" gradientTransform="rotate(25)" id="75b105b0-9e85-4cbf-aaa4-3a0caa1ef750" x1="0%" y1="0%" x2="100%" y2="0%"><stop data-v-fde0c5aa="" offset="0%" stop-color="#422F75" stop-opacity="1"></stop><stop data-v-fde0c5aa="" offset="100%" stop-color="#C0B3EC" stop-opacity="1"></stop></linearGradient></defs><g data-v-fde0c5aa="" id="1d8c7b16-425d-4361-a3e4-00e2ace56760" fill="url(#75b105b0-9e85-4cbf-aaa4-3a0caa1ef750)" transform="matrix(1.7295597899229371,0,0,1.7295597899229371,38.56446530013931,133.56053399885008)"><path d="M5.96 11.35L5.96 11.63C5.92 12.78 5.49 13.27 4.45 13.27C3.15 13.27 2.86 12.56 2.86 11.19L2.86 8.01C2.86 6.64 3.18 5.91 4.45 5.91C5.43 5.91 5.94 6.43 5.94 7.53L5.94 7.73L8.01 7.73L8.01 7.57C8.01 5.31 6.85 4.09 4.45 4.09C1.88 4.09 0.83 5.45 0.83 7.94L0.83 11.27C0.83 13.73 1.86 15.09 4.45 15.09C6.90 15.09 7.99 13.86 8.02 11.61L8.02 11.35ZM11.16 9.63C11.16 8.37 11.49 8.01 12.46 8.01C13.43 8.01 13.76 8.37 13.76 9.63L13.76 11.80C13.76 13.06 13.43 13.44 12.46 13.44C11.49 13.44 11.16 13.06 11.16 11.80ZM12.46 6.34C10.28 6.34 9.27 7.34 9.27 9.65L9.27 11.79C9.27 14.11 10.28 15.09 12.46 15.09C14.64 15.09 15.65 14.11 15.65 11.79L15.65 9.65C15.65 7.34 14.64 6.34 12.46 6.34ZM17.21 6.51L17.21 14.92L19.10 14.92L19.10 10.15C19.10 8.79 19.87 8.30 20.78 8.30C20.99 8.30 21.18 8.32 21.35 8.34L21.35 6.40C21.24 6.38 21.10 6.37 20.96 6.37C20.09 6.37 19.36 6.75 18.96 7.27L18.84 6.51ZM24.14 9.63C24.14 8.37 24.47 8.01 25.44 8.01C26.40 8.01 26.74 8.37 26.74 9.63L26.74 11.80C26.74 13.06 26.40 13.44 25.44 13.44C24.47 13.44 24.14 13.06 24.14 11.80ZM25.44 6.34C23.25 6.34 22.25 7.34 22.25 9.65L22.25 11.79C22.25 14.11 23.25 15.09 25.44 15.09C27.62 15.09 28.63 14.11 28.63 11.79L28.63 9.65C28.63 7.34 27.62 6.34 25.44 6.34ZM30.18 6.51L30.18 14.92L32.07 14.92L32.07 9.42C32.07 8.44 32.56 8.01 33.36 8.01C34.30 8.01 34.61 8.47 34.61 9.58L34.61 14.92L36.50 14.92L36.50 9.38C36.50 7.34 35.76 6.34 33.94 6.34C33.04 6.34 32.34 6.59 31.91 7.10L31.82 6.51ZM42.53 14.92L44.20 14.92L44.20 9.24C44.20 7.07 42.98 6.34 41.19 6.34C39.21 6.34 38.18 7.17 38.18 9.24L39.87 9.24C39.87 8.26 40.32 7.90 41.17 7.90C42.00 7.90 42.41 8.32 42.41 9.28L42.41 10.14C42.01 10.09 41.55 10.05 41.19 10.05C38.89 10.05 37.93 11.00 37.93 12.70C37.93 14.25 38.92 15.09 40.35 15.09C41.29 15.09 42.01 14.80 42.46 14.28ZM42.41 12.05C42.41 13.01 41.72 13.54 40.95 13.54C40.18 13.54 39.79 13.19 39.79 12.54C39.79 11.77 40.21 11.37 41.34 11.37C41.61 11.37 42.11 11.40 42.41 11.45ZM49.39 14.92L52.50 14.92C55.24 14.92 56.36 13.62 56.36 11.05L56.36 8.19C56.36 5.56 55.26 4.26 52.50 4.26L49.39 4.26ZM52.51 5.96C53.90 5.96 54.33 6.58 54.33 8.05L54.33 11.17C54.33 12.59 53.90 13.22 52.51 13.22L51.30 13.22L51.30 5.96ZM62.37 12.40C62.33 13.13 62.02 13.54 61.05 13.54C60.09 13.54 59.71 13.02 59.71 11.98L59.71 11.28L64.19 11.28L64.19 9.55C64.19 7.34 63.17 6.34 61.05 6.34C58.90 6.34 57.86 7.49 57.86 9.58L57.86 11.79C57.86 14.11 58.88 15.09 61.07 15.09C63.22 15.09 64.06 14.15 64.12 12.40ZM61.07 7.91C62.03 7.91 62.40 8.43 62.40 9.53L62.40 9.84L59.71 9.84L59.71 9.59C59.71 8.39 60.09 7.91 61.07 7.91ZM71.11 8.16L71.11 6.51L65.41 6.51L65.41 8.18L68.84 8.18L65.23 13.27L65.23 14.92L71.26 14.92L71.26 13.26L67.54 13.26ZM76.90 12.40C76.86 13.13 76.55 13.54 75.59 13.54C74.62 13.54 74.24 13.02 74.24 11.98L74.24 11.28L78.72 11.28L78.72 9.55C78.72 7.34 77.70 6.34 75.59 6.34C73.43 6.34 72.39 7.49 72.39 9.58L72.39 11.79C72.39 14.11 73.42 15.09 75.60 15.09C77.76 15.09 78.60 14.15 78.65 12.40ZM75.60 7.91C76.57 7.91 76.93 8.43 76.93 9.53L76.93 9.84L74.24 9.84L74.24 9.59C74.24 8.39 74.62 7.91 75.60 7.91ZM80.21 6.51L80.21 14.92L82.10 14.92L82.10 9.42C82.10 8.44 82.59 8.01 83.38 8.01C84.32 8.01 84.63 8.47 84.63 9.58L84.63 14.92L86.52 14.92L86.52 9.38C86.52 7.34 85.78 6.34 83.96 6.34C83.06 6.34 82.36 6.59 81.93 7.10L81.84 6.51ZM90.08 6.80C90.08 5.81 90.51 5.40 91.52 5.40C91.78 5.40 92.04 5.45 92.23 5.49L92.23 4.00C91.98 3.95 91.59 3.92 91.24 3.92C89.14 3.92 88.19 4.80 88.19 7.08L88.19 14.92L90.08 14.92L90.08 8.55L92.05 8.55L92.05 6.90L90.08 6.90ZM97.54 12.40C97.50 13.13 97.19 13.54 96.22 13.54C95.26 13.54 94.88 13.02 94.88 11.98L94.88 11.28L99.36 11.28L99.36 9.55C99.36 7.34 98.34 6.34 96.22 6.34C94.07 6.34 93.03 7.49 93.03 9.58L93.03 11.79C93.03 14.11 94.05 15.09 96.24 15.09C98.39 15.09 99.23 14.15 99.29 12.40ZM96.24 7.91C97.20 7.91 97.57 8.43 97.57 9.53L97.57 9.84L94.88 9.84L94.88 9.59C94.88 8.39 95.26 7.91 96.24 7.91ZM107.72 6.51L105.48 6.51L103.35 9.62L102.73 9.62L102.73 4.12L100.84 4.12L100.84 14.92L102.72 14.92L102.72 11.27L103.38 11.27L105.70 14.92L108.02 14.92L104.90 10.35ZM111.94 13.38C111.16 13.38 110.87 13.08 110.87 12.01L110.87 8.55L112.55 8.55L112.55 6.92L110.87 6.92L110.87 4.97L108.93 4.97L108.93 11.96C108.93 14.07 109.55 15.09 111.50 15.09C111.93 15.09 112.36 15.04 112.55 14.99L112.55 13.31C112.38 13.36 112.15 13.38 111.94 13.38ZM118.41 14.92L120.08 14.92L120.08 9.24C120.08 7.07 118.86 6.34 117.07 6.34C115.09 6.34 114.06 7.17 114.06 9.24L115.75 9.24C115.75 8.26 116.20 7.90 117.05 7.90C117.88 7.90 118.29 8.32 118.29 9.28L118.29 10.14C117.89 10.09 117.43 10.05 117.07 10.05C114.77 10.05 113.81 11.00 113.81 12.70C113.81 14.25 114.80 15.09 116.23 15.09C117.17 15.09 117.89 14.80 118.34 14.28ZM118.29 12.05C118.29 13.01 117.60 13.54 116.83 13.54C116.06 13.54 115.67 13.19 115.67 12.54C115.67 11.77 116.09 11.37 117.22 11.37C117.49 11.37 117.99 11.40 118.29 11.45ZM121.72 6.51L121.72 14.92L123.61 14.92L123.61 9.42C123.61 8.44 124.10 8.01 124.89 8.01C125.83 8.01 126.14 8.47 126.14 9.58L126.14 14.92L128.03 14.92L128.03 9.38C128.03 7.34 127.29 6.34 125.47 6.34C124.57 6.34 123.87 6.59 123.44 7.10L123.35 6.51Z"></path></g><!----><!----></svg>